<mxfile host="Electron" modified="2023-10-26T12:24:20.939Z" agent="Mozilla/5.0 (X11; Linux x86_64) AppleWebKit/537.36 (KHTML, like Gecko) draw.io/22.0.3 Chrome/114.0.5735.289 Electron/25.8.4 Safari/537.36" etag="0xtgaPTiz_OJUSP-c_go" version="22.0.3" type="device">
  <diagram id="R2lEEEUBdFMjLlhIrx00" name="Page-1">
    <mxGraphModel dx="1195" dy="1809" grid="1" gridSize="10" guides="1" tooltips="1" connect="1" arrows="1" fold="1" page="1" pageScale="1" pageWidth="850" pageHeight="1100" math="0" shadow="0" extFonts="Permanent Marker^https://fonts.googleapis.com/css?family=Permanent+Marker">
      <root>
        <mxCell id="0" />
        <mxCell id="1" parent="0" />
        <mxCell id="C-vyLk0tnHw3VtMMgP7b-2" value="Items" style="shape=table;startSize=30;container=1;collapsible=1;childLayout=tableLayout;fixedRows=1;rowLines=0;fontStyle=1;align=center;resizeLast=1;fontFamily=Source Code Pro Semibold;fontSource=https%3A%2F%2Ffonts.googleapis.com%2Fcss%3Ffamily%3DSource%2BCode%2BPro%2BSemibold;" parent="1" vertex="1">
          <mxGeometry x="440" y="560" width="250" height="160" as="geometry" />
        </mxCell>
        <mxCell id="C-vyLk0tnHw3VtMMgP7b-3" value="" style="shape=partialRectangle;collapsible=0;dropTarget=0;pointerEvents=0;fillColor=none;points=[[0,0.5],[1,0.5]];portConstraint=eastwest;top=0;left=0;right=0;bottom=1;fontFamily=Source Code Pro Semibold;fontSource=https%3A%2F%2Ffonts.googleapis.com%2Fcss%3Ffamily%3DSource%2BCode%2BPro%2BSemibold;" parent="C-vyLk0tnHw3VtMMgP7b-2" vertex="1">
          <mxGeometry y="30" width="250" height="30" as="geometry" />
        </mxCell>
        <mxCell id="C-vyLk0tnHw3VtMMgP7b-4" value="PK" style="shape=partialRectangle;overflow=hidden;connectable=0;fillColor=none;top=0;left=0;bottom=0;right=0;fontStyle=1;fontFamily=Source Code Pro Semibold;fontSource=https%3A%2F%2Ffonts.googleapis.com%2Fcss%3Ffamily%3DSource%2BCode%2BPro%2BSemibold;" parent="C-vyLk0tnHw3VtMMgP7b-3" vertex="1">
          <mxGeometry width="30" height="30" as="geometry">
            <mxRectangle width="30" height="30" as="alternateBounds" />
          </mxGeometry>
        </mxCell>
        <mxCell id="C-vyLk0tnHw3VtMMgP7b-5" value="id int NOT NULL " style="shape=partialRectangle;overflow=hidden;connectable=0;fillColor=none;top=0;left=0;bottom=0;right=0;align=left;spacingLeft=6;fontStyle=5;fontFamily=Source Code Pro Semibold;fontSource=https%3A%2F%2Ffonts.googleapis.com%2Fcss%3Ffamily%3DSource%2BCode%2BPro%2BSemibold;" parent="C-vyLk0tnHw3VtMMgP7b-3" vertex="1">
          <mxGeometry x="30" width="220" height="30" as="geometry">
            <mxRectangle width="220" height="30" as="alternateBounds" />
          </mxGeometry>
        </mxCell>
        <mxCell id="C-vyLk0tnHw3VtMMgP7b-6" value="" style="shape=partialRectangle;collapsible=0;dropTarget=0;pointerEvents=0;fillColor=none;points=[[0,0.5],[1,0.5]];portConstraint=eastwest;top=0;left=0;right=0;bottom=0;fontFamily=Source Code Pro Semibold;fontSource=https%3A%2F%2Ffonts.googleapis.com%2Fcss%3Ffamily%3DSource%2BCode%2BPro%2BSemibold;" parent="C-vyLk0tnHw3VtMMgP7b-2" vertex="1">
          <mxGeometry y="60" width="250" height="30" as="geometry" />
        </mxCell>
        <mxCell id="C-vyLk0tnHw3VtMMgP7b-7" value="" style="shape=partialRectangle;overflow=hidden;connectable=0;fillColor=none;top=0;left=0;bottom=0;right=0;fontFamily=Source Code Pro Semibold;fontSource=https%3A%2F%2Ffonts.googleapis.com%2Fcss%3Ffamily%3DSource%2BCode%2BPro%2BSemibold;" parent="C-vyLk0tnHw3VtMMgP7b-6" vertex="1">
          <mxGeometry width="30" height="30" as="geometry">
            <mxRectangle width="30" height="30" as="alternateBounds" />
          </mxGeometry>
        </mxCell>
        <mxCell id="C-vyLk0tnHw3VtMMgP7b-8" value="name char(21) NOT NULL" style="shape=partialRectangle;overflow=hidden;connectable=0;fillColor=none;top=0;left=0;bottom=0;right=0;align=left;spacingLeft=6;fontFamily=Source Code Pro Semibold;fontSource=https%3A%2F%2Ffonts.googleapis.com%2Fcss%3Ffamily%3DSource%2BCode%2BPro%2BSemibold;" parent="C-vyLk0tnHw3VtMMgP7b-6" vertex="1">
          <mxGeometry x="30" width="220" height="30" as="geometry">
            <mxRectangle width="220" height="30" as="alternateBounds" />
          </mxGeometry>
        </mxCell>
        <mxCell id="C-vyLk0tnHw3VtMMgP7b-9" value="" style="shape=partialRectangle;collapsible=0;dropTarget=0;pointerEvents=0;fillColor=none;points=[[0,0.5],[1,0.5]];portConstraint=eastwest;top=0;left=0;right=0;bottom=0;fontFamily=Source Code Pro Semibold;fontSource=https%3A%2F%2Ffonts.googleapis.com%2Fcss%3Ffamily%3DSource%2BCode%2BPro%2BSemibold;" parent="C-vyLk0tnHw3VtMMgP7b-2" vertex="1">
          <mxGeometry y="90" width="250" height="30" as="geometry" />
        </mxCell>
        <mxCell id="C-vyLk0tnHw3VtMMgP7b-10" value="" style="shape=partialRectangle;overflow=hidden;connectable=0;fillColor=none;top=0;left=0;bottom=0;right=0;fontFamily=Source Code Pro Semibold;fontSource=https%3A%2F%2Ffonts.googleapis.com%2Fcss%3Ffamily%3DSource%2BCode%2BPro%2BSemibold;" parent="C-vyLk0tnHw3VtMMgP7b-9" vertex="1">
          <mxGeometry width="30" height="30" as="geometry">
            <mxRectangle width="30" height="30" as="alternateBounds" />
          </mxGeometry>
        </mxCell>
        <mxCell id="C-vyLk0tnHw3VtMMgP7b-11" value="type char(7) NOT NULL" style="shape=partialRectangle;overflow=hidden;connectable=0;fillColor=none;top=0;left=0;bottom=0;right=0;align=left;spacingLeft=6;fontFamily=Source Code Pro Semibold;fontSource=https%3A%2F%2Ffonts.googleapis.com%2Fcss%3Ffamily%3DSource%2BCode%2BPro%2BSemibold;" parent="C-vyLk0tnHw3VtMMgP7b-9" vertex="1">
          <mxGeometry x="30" width="220" height="30" as="geometry">
            <mxRectangle width="220" height="30" as="alternateBounds" />
          </mxGeometry>
        </mxCell>
        <mxCell id="TXvpiFFwsclp0lEu6n0N-46" value="" style="shape=partialRectangle;collapsible=0;dropTarget=0;pointerEvents=0;fillColor=none;points=[[0,0.5],[1,0.5]];portConstraint=eastwest;top=0;left=0;right=0;bottom=0;fontFamily=Source Code Pro Semibold;fontSource=https%3A%2F%2Ffonts.googleapis.com%2Fcss%3Ffamily%3DSource%2BCode%2BPro%2BSemibold;" vertex="1" parent="C-vyLk0tnHw3VtMMgP7b-2">
          <mxGeometry y="120" width="250" height="30" as="geometry" />
        </mxCell>
        <mxCell id="TXvpiFFwsclp0lEu6n0N-47" value="" style="shape=partialRectangle;overflow=hidden;connectable=0;fillColor=none;top=0;left=0;bottom=0;right=0;fontFamily=Source Code Pro Semibold;fontSource=https%3A%2F%2Ffonts.googleapis.com%2Fcss%3Ffamily%3DSource%2BCode%2BPro%2BSemibold;" vertex="1" parent="TXvpiFFwsclp0lEu6n0N-46">
          <mxGeometry width="30" height="30" as="geometry">
            <mxRectangle width="30" height="30" as="alternateBounds" />
          </mxGeometry>
        </mxCell>
        <mxCell id="TXvpiFFwsclp0lEu6n0N-48" value="price NUMERIC(5, 2) NULL" style="shape=partialRectangle;overflow=hidden;connectable=0;fillColor=none;top=0;left=0;bottom=0;right=0;align=left;spacingLeft=6;fontFamily=Source Code Pro Semibold;fontSource=https%3A%2F%2Ffonts.googleapis.com%2Fcss%3Ffamily%3DSource%2BCode%2BPro%2BSemibold;" vertex="1" parent="TXvpiFFwsclp0lEu6n0N-46">
          <mxGeometry x="30" width="220" height="30" as="geometry">
            <mxRectangle width="220" height="30" as="alternateBounds" />
          </mxGeometry>
        </mxCell>
        <mxCell id="C-vyLk0tnHw3VtMMgP7b-13" value="CartItems" style="shape=table;startSize=30;container=1;collapsible=1;childLayout=tableLayout;fixedRows=1;rowLines=0;fontStyle=1;align=center;resizeLast=1;fontFamily=Source Code Pro Semibold;fontSource=https%3A%2F%2Ffonts.googleapis.com%2Fcss%3Ffamily%3DSource%2BCode%2BPro%2BSemibold;" parent="1" vertex="1">
          <mxGeometry x="440" y="360" width="250" height="130" as="geometry" />
        </mxCell>
        <mxCell id="C-vyLk0tnHw3VtMMgP7b-17" value="" style="shape=partialRectangle;collapsible=0;dropTarget=0;pointerEvents=0;fillColor=none;points=[[0,0.5],[1,0.5]];portConstraint=eastwest;top=0;left=0;right=0;bottom=0;fontFamily=Source Code Pro Semibold;fontSource=https%3A%2F%2Ffonts.googleapis.com%2Fcss%3Ffamily%3DSource%2BCode%2BPro%2BSemibold;" parent="C-vyLk0tnHw3VtMMgP7b-13" vertex="1">
          <mxGeometry y="30" width="250" height="30" as="geometry" />
        </mxCell>
        <mxCell id="C-vyLk0tnHw3VtMMgP7b-18" value="FK1" style="shape=partialRectangle;overflow=hidden;connectable=0;fillColor=none;top=0;left=0;bottom=0;right=0;fontFamily=Source Code Pro Semibold;fontSource=https%3A%2F%2Ffonts.googleapis.com%2Fcss%3Ffamily%3DSource%2BCode%2BPro%2BSemibold;" parent="C-vyLk0tnHw3VtMMgP7b-17" vertex="1">
          <mxGeometry width="30" height="30" as="geometry">
            <mxRectangle width="30" height="30" as="alternateBounds" />
          </mxGeometry>
        </mxCell>
        <mxCell id="C-vyLk0tnHw3VtMMgP7b-19" value="cart_id int NOT NULL" style="shape=partialRectangle;overflow=hidden;connectable=0;fillColor=none;top=0;left=0;bottom=0;right=0;align=left;spacingLeft=6;fontFamily=Source Code Pro Semibold;fontSource=https%3A%2F%2Ffonts.googleapis.com%2Fcss%3Ffamily%3DSource%2BCode%2BPro%2BSemibold;" parent="C-vyLk0tnHw3VtMMgP7b-17" vertex="1">
          <mxGeometry x="30" width="220" height="30" as="geometry">
            <mxRectangle width="220" height="30" as="alternateBounds" />
          </mxGeometry>
        </mxCell>
        <mxCell id="C-vyLk0tnHw3VtMMgP7b-20" value="" style="shape=partialRectangle;collapsible=0;dropTarget=0;pointerEvents=0;fillColor=none;points=[[0,0.5],[1,0.5]];portConstraint=eastwest;top=0;left=0;right=0;bottom=0;fontFamily=Source Code Pro Semibold;fontSource=https%3A%2F%2Ffonts.googleapis.com%2Fcss%3Ffamily%3DSource%2BCode%2BPro%2BSemibold;" parent="C-vyLk0tnHw3VtMMgP7b-13" vertex="1">
          <mxGeometry y="60" width="250" height="30" as="geometry" />
        </mxCell>
        <mxCell id="C-vyLk0tnHw3VtMMgP7b-21" value="Fk2" style="shape=partialRectangle;overflow=hidden;connectable=0;fillColor=none;top=0;left=0;bottom=0;right=0;fontFamily=Source Code Pro Semibold;fontSource=https%3A%2F%2Ffonts.googleapis.com%2Fcss%3Ffamily%3DSource%2BCode%2BPro%2BSemibold;" parent="C-vyLk0tnHw3VtMMgP7b-20" vertex="1">
          <mxGeometry width="30" height="30" as="geometry">
            <mxRectangle width="30" height="30" as="alternateBounds" />
          </mxGeometry>
        </mxCell>
        <mxCell id="C-vyLk0tnHw3VtMMgP7b-22" value="item_id int NOT NULL" style="shape=partialRectangle;overflow=hidden;connectable=0;fillColor=none;top=0;left=0;bottom=0;right=0;align=left;spacingLeft=6;fontFamily=Source Code Pro Semibold;fontSource=https%3A%2F%2Ffonts.googleapis.com%2Fcss%3Ffamily%3DSource%2BCode%2BPro%2BSemibold;" parent="C-vyLk0tnHw3VtMMgP7b-20" vertex="1">
          <mxGeometry x="30" width="220" height="30" as="geometry">
            <mxRectangle width="220" height="30" as="alternateBounds" />
          </mxGeometry>
        </mxCell>
        <mxCell id="TXvpiFFwsclp0lEu6n0N-30" value="" style="shape=partialRectangle;collapsible=0;dropTarget=0;pointerEvents=0;fillColor=none;points=[[0,0.5],[1,0.5]];portConstraint=eastwest;top=0;left=0;right=0;bottom=0;fontFamily=Source Code Pro Semibold;fontSource=https%3A%2F%2Ffonts.googleapis.com%2Fcss%3Ffamily%3DSource%2BCode%2BPro%2BSemibold;" vertex="1" parent="C-vyLk0tnHw3VtMMgP7b-13">
          <mxGeometry y="90" width="250" height="30" as="geometry" />
        </mxCell>
        <mxCell id="TXvpiFFwsclp0lEu6n0N-31" value="" style="shape=partialRectangle;overflow=hidden;connectable=0;fillColor=none;top=0;left=0;bottom=0;right=0;fontFamily=Source Code Pro Semibold;fontSource=https%3A%2F%2Ffonts.googleapis.com%2Fcss%3Ffamily%3DSource%2BCode%2BPro%2BSemibold;" vertex="1" parent="TXvpiFFwsclp0lEu6n0N-30">
          <mxGeometry width="30" height="30" as="geometry">
            <mxRectangle width="30" height="30" as="alternateBounds" />
          </mxGeometry>
        </mxCell>
        <mxCell id="TXvpiFFwsclp0lEu6n0N-32" value="qty int NOT NULL" style="shape=partialRectangle;overflow=hidden;connectable=0;fillColor=none;top=0;left=0;bottom=0;right=0;align=left;spacingLeft=6;fontFamily=Source Code Pro Semibold;fontSource=https%3A%2F%2Ffonts.googleapis.com%2Fcss%3Ffamily%3DSource%2BCode%2BPro%2BSemibold;" vertex="1" parent="TXvpiFFwsclp0lEu6n0N-30">
          <mxGeometry x="30" width="220" height="30" as="geometry">
            <mxRectangle width="220" height="30" as="alternateBounds" />
          </mxGeometry>
        </mxCell>
        <mxCell id="C-vyLk0tnHw3VtMMgP7b-23" value="Customers" style="shape=table;startSize=30;container=1;collapsible=1;childLayout=tableLayout;fixedRows=1;rowLines=0;fontStyle=1;align=center;resizeLast=1;fontFamily=Source Code Pro Semibold;fontSource=https%3A%2F%2Ffonts.googleapis.com%2Fcss%3Ffamily%3DSource%2BCode%2BPro%2BSemibold;" parent="1" vertex="1">
          <mxGeometry x="50" y="120" width="250" height="160" as="geometry" />
        </mxCell>
        <mxCell id="C-vyLk0tnHw3VtMMgP7b-24" value="" style="shape=partialRectangle;collapsible=0;dropTarget=0;pointerEvents=0;fillColor=none;points=[[0,0.5],[1,0.5]];portConstraint=eastwest;top=0;left=0;right=0;bottom=1;fontFamily=Source Code Pro Semibold;fontSource=https%3A%2F%2Ffonts.googleapis.com%2Fcss%3Ffamily%3DSource%2BCode%2BPro%2BSemibold;" parent="C-vyLk0tnHw3VtMMgP7b-23" vertex="1">
          <mxGeometry y="30" width="250" height="30" as="geometry" />
        </mxCell>
        <mxCell id="C-vyLk0tnHw3VtMMgP7b-25" value="PK" style="shape=partialRectangle;overflow=hidden;connectable=0;fillColor=none;top=0;left=0;bottom=0;right=0;fontStyle=1;fontFamily=Source Code Pro Semibold;fontSource=https%3A%2F%2Ffonts.googleapis.com%2Fcss%3Ffamily%3DSource%2BCode%2BPro%2BSemibold;" parent="C-vyLk0tnHw3VtMMgP7b-24" vertex="1">
          <mxGeometry width="30" height="30" as="geometry">
            <mxRectangle width="30" height="30" as="alternateBounds" />
          </mxGeometry>
        </mxCell>
        <mxCell id="C-vyLk0tnHw3VtMMgP7b-26" value="id int NOT NULL " style="shape=partialRectangle;overflow=hidden;connectable=0;fillColor=none;top=0;left=0;bottom=0;right=0;align=left;spacingLeft=6;fontStyle=5;fontFamily=Source Code Pro Semibold;fontSource=https%3A%2F%2Ffonts.googleapis.com%2Fcss%3Ffamily%3DSource%2BCode%2BPro%2BSemibold;" parent="C-vyLk0tnHw3VtMMgP7b-24" vertex="1">
          <mxGeometry x="30" width="220" height="30" as="geometry">
            <mxRectangle width="220" height="30" as="alternateBounds" />
          </mxGeometry>
        </mxCell>
        <mxCell id="C-vyLk0tnHw3VtMMgP7b-27" value="" style="shape=partialRectangle;collapsible=0;dropTarget=0;pointerEvents=0;fillColor=none;points=[[0,0.5],[1,0.5]];portConstraint=eastwest;top=0;left=0;right=0;bottom=0;fontFamily=Source Code Pro Semibold;fontSource=https%3A%2F%2Ffonts.googleapis.com%2Fcss%3Ffamily%3DSource%2BCode%2BPro%2BSemibold;" parent="C-vyLk0tnHw3VtMMgP7b-23" vertex="1">
          <mxGeometry y="60" width="250" height="30" as="geometry" />
        </mxCell>
        <mxCell id="C-vyLk0tnHw3VtMMgP7b-28" value="" style="shape=partialRectangle;overflow=hidden;connectable=0;fillColor=none;top=0;left=0;bottom=0;right=0;fontFamily=Source Code Pro Semibold;fontSource=https%3A%2F%2Ffonts.googleapis.com%2Fcss%3Ffamily%3DSource%2BCode%2BPro%2BSemibold;" parent="C-vyLk0tnHw3VtMMgP7b-27" vertex="1">
          <mxGeometry width="30" height="30" as="geometry">
            <mxRectangle width="30" height="30" as="alternateBounds" />
          </mxGeometry>
        </mxCell>
        <mxCell id="C-vyLk0tnHw3VtMMgP7b-29" value="name char(99) NOT NULL" style="shape=partialRectangle;overflow=hidden;connectable=0;fillColor=none;top=0;left=0;bottom=0;right=0;align=left;spacingLeft=6;fontFamily=Source Code Pro Semibold;fontSource=https%3A%2F%2Ffonts.googleapis.com%2Fcss%3Ffamily%3DSource%2BCode%2BPro%2BSemibold;" parent="C-vyLk0tnHw3VtMMgP7b-27" vertex="1">
          <mxGeometry x="30" width="220" height="30" as="geometry">
            <mxRectangle width="220" height="30" as="alternateBounds" />
          </mxGeometry>
        </mxCell>
        <mxCell id="TXvpiFFwsclp0lEu6n0N-21" value="" style="shape=partialRectangle;collapsible=0;dropTarget=0;pointerEvents=0;fillColor=none;points=[[0,0.5],[1,0.5]];portConstraint=eastwest;top=0;left=0;right=0;bottom=0;fontFamily=Source Code Pro Semibold;fontSource=https%3A%2F%2Ffonts.googleapis.com%2Fcss%3Ffamily%3DSource%2BCode%2BPro%2BSemibold;" vertex="1" parent="C-vyLk0tnHw3VtMMgP7b-23">
          <mxGeometry y="90" width="250" height="30" as="geometry" />
        </mxCell>
        <mxCell id="TXvpiFFwsclp0lEu6n0N-22" value="" style="shape=partialRectangle;overflow=hidden;connectable=0;fillColor=none;top=0;left=0;bottom=0;right=0;fontFamily=Source Code Pro Semibold;fontSource=https%3A%2F%2Ffonts.googleapis.com%2Fcss%3Ffamily%3DSource%2BCode%2BPro%2BSemibold;" vertex="1" parent="TXvpiFFwsclp0lEu6n0N-21">
          <mxGeometry width="30" height="30" as="geometry">
            <mxRectangle width="30" height="30" as="alternateBounds" />
          </mxGeometry>
        </mxCell>
        <mxCell id="TXvpiFFwsclp0lEu6n0N-23" value="billaddr char(255) NOT NULL" style="shape=partialRectangle;overflow=hidden;connectable=0;fillColor=none;top=0;left=0;bottom=0;right=0;align=left;spacingLeft=6;fontFamily=Source Code Pro Semibold;fontSource=https%3A%2F%2Ffonts.googleapis.com%2Fcss%3Ffamily%3DSource%2BCode%2BPro%2BSemibold;" vertex="1" parent="TXvpiFFwsclp0lEu6n0N-21">
          <mxGeometry x="30" width="220" height="30" as="geometry">
            <mxRectangle width="220" height="30" as="alternateBounds" />
          </mxGeometry>
        </mxCell>
        <mxCell id="TXvpiFFwsclp0lEu6n0N-24" value="" style="shape=partialRectangle;collapsible=0;dropTarget=0;pointerEvents=0;fillColor=none;points=[[0,0.5],[1,0.5]];portConstraint=eastwest;top=0;left=0;right=0;bottom=0;fontFamily=Source Code Pro Semibold;fontSource=https%3A%2F%2Ffonts.googleapis.com%2Fcss%3Ffamily%3DSource%2BCode%2BPro%2BSemibold;" vertex="1" parent="C-vyLk0tnHw3VtMMgP7b-23">
          <mxGeometry y="120" width="250" height="30" as="geometry" />
        </mxCell>
        <mxCell id="TXvpiFFwsclp0lEu6n0N-25" value="" style="shape=partialRectangle;overflow=hidden;connectable=0;fillColor=none;top=0;left=0;bottom=0;right=0;fontFamily=Source Code Pro Semibold;fontSource=https%3A%2F%2Ffonts.googleapis.com%2Fcss%3Ffamily%3DSource%2BCode%2BPro%2BSemibold;" vertex="1" parent="TXvpiFFwsclp0lEu6n0N-24">
          <mxGeometry width="30" height="30" as="geometry">
            <mxRectangle width="30" height="30" as="alternateBounds" />
          </mxGeometry>
        </mxCell>
        <mxCell id="TXvpiFFwsclp0lEu6n0N-26" value="shipaddr char(255) NOT NULL" style="shape=partialRectangle;overflow=hidden;connectable=0;fillColor=none;top=0;left=0;bottom=0;right=0;align=left;spacingLeft=6;fontFamily=Source Code Pro Semibold;fontSource=https%3A%2F%2Ffonts.googleapis.com%2Fcss%3Ffamily%3DSource%2BCode%2BPro%2BSemibold;" vertex="1" parent="TXvpiFFwsclp0lEu6n0N-24">
          <mxGeometry x="30" width="220" height="30" as="geometry">
            <mxRectangle width="220" height="30" as="alternateBounds" />
          </mxGeometry>
        </mxCell>
        <mxCell id="TXvpiFFwsclp0lEu6n0N-1" value="Carts" style="shape=table;startSize=30;container=1;collapsible=1;childLayout=tableLayout;fixedRows=1;rowLines=0;fontStyle=1;align=center;resizeLast=1;fontFamily=Source Code Pro Semibold;fontSource=https%3A%2F%2Ffonts.googleapis.com%2Fcss%3Ffamily%3DSource%2BCode%2BPro%2BSemibold;" vertex="1" parent="1">
          <mxGeometry x="440" y="120" width="250" height="130" as="geometry" />
        </mxCell>
        <mxCell id="TXvpiFFwsclp0lEu6n0N-2" value="" style="shape=partialRectangle;collapsible=0;dropTarget=0;pointerEvents=0;fillColor=none;points=[[0,0.5],[1,0.5]];portConstraint=eastwest;top=0;left=0;right=0;bottom=1;fontFamily=Source Code Pro Semibold;fontSource=https%3A%2F%2Ffonts.googleapis.com%2Fcss%3Ffamily%3DSource%2BCode%2BPro%2BSemibold;" vertex="1" parent="TXvpiFFwsclp0lEu6n0N-1">
          <mxGeometry y="30" width="250" height="30" as="geometry" />
        </mxCell>
        <mxCell id="TXvpiFFwsclp0lEu6n0N-3" value="PK" style="shape=partialRectangle;overflow=hidden;connectable=0;fillColor=none;top=0;left=0;bottom=0;right=0;fontStyle=1;fontFamily=Source Code Pro Semibold;fontSource=https%3A%2F%2Ffonts.googleapis.com%2Fcss%3Ffamily%3DSource%2BCode%2BPro%2BSemibold;" vertex="1" parent="TXvpiFFwsclp0lEu6n0N-2">
          <mxGeometry width="30" height="30" as="geometry">
            <mxRectangle width="30" height="30" as="alternateBounds" />
          </mxGeometry>
        </mxCell>
        <mxCell id="TXvpiFFwsclp0lEu6n0N-4" value="id" style="shape=partialRectangle;overflow=hidden;connectable=0;fillColor=none;top=0;left=0;bottom=0;right=0;align=left;spacingLeft=6;fontStyle=5;fontFamily=Source Code Pro Semibold;fontSource=https%3A%2F%2Ffonts.googleapis.com%2Fcss%3Ffamily%3DSource%2BCode%2BPro%2BSemibold;" vertex="1" parent="TXvpiFFwsclp0lEu6n0N-2">
          <mxGeometry x="30" width="220" height="30" as="geometry">
            <mxRectangle width="220" height="30" as="alternateBounds" />
          </mxGeometry>
        </mxCell>
        <mxCell id="TXvpiFFwsclp0lEu6n0N-5" value="" style="shape=partialRectangle;collapsible=0;dropTarget=0;pointerEvents=0;fillColor=none;points=[[0,0.5],[1,0.5]];portConstraint=eastwest;top=0;left=0;right=0;bottom=0;fontFamily=Source Code Pro Semibold;fontSource=https%3A%2F%2Ffonts.googleapis.com%2Fcss%3Ffamily%3DSource%2BCode%2BPro%2BSemibold;" vertex="1" parent="TXvpiFFwsclp0lEu6n0N-1">
          <mxGeometry y="60" width="250" height="30" as="geometry" />
        </mxCell>
        <mxCell id="TXvpiFFwsclp0lEu6n0N-6" value="FK1" style="shape=partialRectangle;overflow=hidden;connectable=0;fillColor=none;top=0;left=0;bottom=0;right=0;fontFamily=Source Code Pro Semibold;fontSource=https%3A%2F%2Ffonts.googleapis.com%2Fcss%3Ffamily%3DSource%2BCode%2BPro%2BSemibold;" vertex="1" parent="TXvpiFFwsclp0lEu6n0N-5">
          <mxGeometry width="30" height="30" as="geometry">
            <mxRectangle width="30" height="30" as="alternateBounds" />
          </mxGeometry>
        </mxCell>
        <mxCell id="TXvpiFFwsclp0lEu6n0N-7" value="customer_id int NOT NULL" style="shape=partialRectangle;overflow=hidden;connectable=0;fillColor=none;top=0;left=0;bottom=0;right=0;align=left;spacingLeft=6;fontFamily=Source Code Pro Semibold;fontSource=https%3A%2F%2Ffonts.googleapis.com%2Fcss%3Ffamily%3DSource%2BCode%2BPro%2BSemibold;" vertex="1" parent="TXvpiFFwsclp0lEu6n0N-5">
          <mxGeometry x="30" width="220" height="30" as="geometry">
            <mxRectangle width="220" height="30" as="alternateBounds" />
          </mxGeometry>
        </mxCell>
        <mxCell id="TXvpiFFwsclp0lEu6n0N-8" value="" style="shape=partialRectangle;collapsible=0;dropTarget=0;pointerEvents=0;fillColor=none;points=[[0,0.5],[1,0.5]];portConstraint=eastwest;top=0;left=0;right=0;bottom=0;fontFamily=Source Code Pro Semibold;fontSource=https%3A%2F%2Ffonts.googleapis.com%2Fcss%3Ffamily%3DSource%2BCode%2BPro%2BSemibold;" vertex="1" parent="TXvpiFFwsclp0lEu6n0N-1">
          <mxGeometry y="90" width="250" height="30" as="geometry" />
        </mxCell>
        <mxCell id="TXvpiFFwsclp0lEu6n0N-9" value="" style="shape=partialRectangle;overflow=hidden;connectable=0;fillColor=none;top=0;left=0;bottom=0;right=0;fontFamily=Source Code Pro Semibold;fontSource=https%3A%2F%2Ffonts.googleapis.com%2Fcss%3Ffamily%3DSource%2BCode%2BPro%2BSemibold;" vertex="1" parent="TXvpiFFwsclp0lEu6n0N-8">
          <mxGeometry width="30" height="30" as="geometry">
            <mxRectangle width="30" height="30" as="alternateBounds" />
          </mxGeometry>
        </mxCell>
        <mxCell id="TXvpiFFwsclp0lEu6n0N-10" value="cartdate date NOT NULL" style="shape=partialRectangle;overflow=hidden;connectable=0;fillColor=none;top=0;left=0;bottom=0;right=0;align=left;spacingLeft=6;fontFamily=Source Code Pro Semibold;fontSource=https%3A%2F%2Ffonts.googleapis.com%2Fcss%3Ffamily%3DSource%2BCode%2BPro%2BSemibold;" vertex="1" parent="TXvpiFFwsclp0lEu6n0N-8">
          <mxGeometry x="30" width="220" height="30" as="geometry">
            <mxRectangle width="220" height="30" as="alternateBounds" />
          </mxGeometry>
        </mxCell>
        <mxCell id="TXvpiFFwsclp0lEu6n0N-36" style="edgeStyle=orthogonalEdgeStyle;rounded=0;orthogonalLoop=1;jettySize=auto;html=1;exitX=1;exitY=0.5;exitDx=0;exitDy=0;" edge="1" parent="TXvpiFFwsclp0lEu6n0N-1" source="TXvpiFFwsclp0lEu6n0N-2" target="TXvpiFFwsclp0lEu6n0N-2">
          <mxGeometry relative="1" as="geometry" />
        </mxCell>
        <mxCell id="TXvpiFFwsclp0lEu6n0N-11" value="" style="shape=image;verticalLabelPosition=bottom;labelBackgroundColor=default;verticalAlign=top;aspect=fixed;imageAspect=0;image=data:image/png,iVBORw0KGgoAAAANSUhEUgAAApcAAAC0CAQAAABrws+rAAAAIGNIUk0AAHomAACAhAAA+gAAAIDoAAB1MAAA6mAAADqYAAAXcJy6UTwAAAACYktHRAAAqo0jMgAAAAlwSFlzAAAOwwAADsMBx2+oZAAAAAd0SU1FB+cKGgsuMJMK+KEAAB6jSURBVHja7d15cJznfR/wz+7iIAgSAAGCNymSEnWQlKjLInXZsmXLlq3aThwnsZ3Ecf5I00ybTtrOpJm2+SPpkWmmmaSTHvF4prbTOIfr2IkdSZZk66BO3qQOkuIh3jdxEgBx7fYPriDiXgCLXRy/j4bQ7rvv8+77vPvud5/3et6E8UqMu2QIIRRTZnzFcg+9iMcQwsyUY3zmEoIRlCGEmW/U0ExM4NUQQphpRgjNxDheGd94IYRQXLnusxxmvOHCLjGmsUMIYXrK5D4011iMoAwhzFyZHIbkEIyjPQ8hhOkpM7bnI4dhYoQxc3klhBCmikxOr2SGLzNSXCZGfBRCCNNdZsRHI8blUGGZGOG1EEKYnoYKxcwIrxk+BPuHZERmCGHmGD4qRwzMoTezE8P8Hak1GkIIU9/Q+yYzw/ztN9bw+ydH/muIciGEMJUNfeR75L/XPRrcarx+SML1IRktzBDCdDZ8yzLT79HgTfIMlAwz2YThAzPiMoQwU2QkZCSue3Tt3xCGPv59XVBmuopdmxBCKIREmYEtzH7tzOS1sYYvX+wKhBBCgYyShMlhXkiIqAwhzD4j5F9y0IgDC4UQwmwxMPf6ZWDSUIdu4qLHEMLs0z/5BiVjcsSiEZYhhNlkxNRL9htx8OMIzBDCbDHK5d7JYYtEUIYQZqNhEzA55IiGGz2EEGa0ETIwOUrBiMwQwmwxSuIlhykUQgiz15AZmBzrVEIIYXZKxi1yQwihn2FSMVqXIYSQk+HjMtqXIYTZaNjsi9ZlCCHk5IO4HJyoiTiRKIQwiwydeX1DksO/FEIIs9igLIyN8RBCyEnEZQgh5KRkIoV7XXJAT7HrMCEpN1ihtODv2+Gs9wr4fgkrrTSnAO+U1mi/zgLWLT+WW2FeHqfX5l2NQ98haxKlLLVGWYHfdajaH3Wx4LUfTY2VFk2g/ITi8qof+z29E5tIkV31G/7ZhBbh+Jzybf9TVcHer91X/bqbCvBOXV7zm1IFq1k+ZLT7gl93Vx6n+Z5/7fCw14FMjrSkR/2+ZQV8z6Ed9p+9VJCf59x1Wu9rvjKBKUwo6boc8bgnLC32cpiAr0toKkJcNur2a75UsPf7jnKXCxSX7Rb5esFqlg9pP3VEU16n2eGCP7G8oFsurXb7galw89azlvhXHi32bPTztt1OTGgKse8yhBByEnEZQgg5ibgMIYScRFyGEEJOIi5DCCEnEZchhJCT6XzKZAhh2uiRlrrufNweaaVy76QiI6On3xQKL1qXIYQC2Oov+l3HtsdfaB5D+bQzvl3QK+EGm7S4vOq4s9P8AsliaXLM2WLPxKS44rQz4yjXrklbsWc+Lxq0F3sWiqTTCXv7nh2yS/OYLjrNaHe8yGvBpGyMv2On89qk1HnITSpGLZHWqEL5NLt0bjLs9qYzOqXU2GK9uaOM36pbbbFnOifH7XVUq4QqN3pI9Sjjd+g0N3v186sOuNljMrq0qVRe7MqM0zbbbXYvul20eFat7ysd9G7fsyMu25iNn3MaVFiSzYlLKnRrVGZ5dtxOlzWq1qtTL7jqvLNuUKcMHVpUO2mBamkNLqmyYlKW7STE5V5bnbfECpxySI2Vo5bp8ozlNqibhCpOH2lv+4lWi6zW6bzdVo8al4ec8BELij3ro8i44IcuqLdOrxa73DVqXB510Dq3g+N2K0OPtxy22epiV2icjttrLTqd9KxfzmuXHlPdKqu84pzFEjqdU+4uvVq9pF2vbrXusUyDn+hVplOvSk8o12Kvd6VUasm2zN+zW4eMdy1yh2XOeto8zVZb7bJjSpTgwxblPd7yHpfNnnPGZg9bir1aJLRoMU8NuIhaKRlNmvWoskCvdz1nLW5UbZ6MTud1S6lWi4xel1RKa0C1Gq3Zsguz79qtQauUCosl0OaqpKRLqtSgSbMSVWqm9M7aXs867QEPWarDEUeVoFmzLknVqpWgSbt6Z/RYrM0uB9RZbrkyPRq1KFGteorVM+1VO9zjCWt0u+Rl5WjXrE3CHIuUolWbBZq0qddup20azFXdF6ydjnvNPnNkVGV/Ws+4KtG3njRJK9ehWZnFylxyRdL8vvb3Ra2S5vWtN8XR4axdfuo+1RapQqezeqXUq0RGl3OWanJFqWqVmrRgofnZpXlBu4QF2e/U9DDfUik7fEqJE1ostEK7bV5xs8UueFOHL2rwgjIbLXDOj22x2H7bdblFl7dcxXnb7HGXxQ7bqkydi5631K3SDjqkxz3avGJN9vuST3mPy0MOujkblmwCb9nrZh8Ce6Q9aI4m21zSaZmNyv1Es+MyLrjTDRq95x29Mpa70zK0eU0tjkhb4k6HnXLFEpstRZej3nFJqUp3uUGZs05K63bQ7TZptN855Rb76BTo2mo4vVrtc3+2ThU22ogL9juhS8Z8D1ii1FH73eNFPT7hqLdc9rIqX7DACe+4YI4lHplicdnrBcs8bA1KLfVFtDrsiBYkbLFahRMOWG+PSx51ypsue0e7O9ydnUqrVxzSZJtzbveAHsdt1yZpqfWWSTmkVZkmp5S4R503XdRlhfvV4qS9Lkpa5iFzinjbgGb77dXhWZUetV6rw3YhZZ116qRd9qx7nXRemVXW2ueCTuvdrlaXs17XjnVuH7WNPpUsstorHsNunVai3Q/d4j6LNHrNVp+V0e5un1fviDecU2unHp9ypzbN9uJN71rv57HFHzrmVlR6xOMq/FCPVW5TYY7y7IZ7PuU9LvfLWDOgj6LzdinPxuUR7TaY7wX/4EMqHdDpPpclNEmqcpNGP/aUDZY5Z5f9/rkyF+1yTr06bZ72YWct0GSb4/4lTvtrrW6StstT/qOlLtnrlIvqLHHRD52zXqfnPTiF47LTO3pssrjf0Be8rcZCF31TiycsdcYzDmlSpd0Fp7Wo0aBZj+9pcKsOL3q4CD14Di+jV7M7B7TpDtqq3RpX/cRBv+pW573ogEOq3KVBu24XJCzVnS2R1uaSXheVWCPtkv9isdW6Pedl/8IixxxxUpU6x71uhYQa79qqy+f1+gaW63XYjdYUcXmktTvnohNqdeqx119Ybo1G37LFzyh3yqt2WKbSWVvd4Yib7LfHp31Og29oskHa2xIeLGI9xmq5u+3QKeGoauvQ47RlXlOCC5IuSqu1Vj1S5kugwzyLUObDDuOSXjeAcvOcdQpzrFeC2xzzgjfd6x5LczhmMlZ5j8vj0jnsiG+3w0aftRQJKb/tP1jncWul7Pecxz2uWqenvOhFn8Bxa33BLY7ZY69/Y60TnnEK/FDa52yRdtLvek81LivxO9ZK+YlG9/kZZKZwWHLVQT2qBszjZ3xamYRmV+zOtjxZ6N9KKLHBHHv8itXKPK3ZFk9MwXp2Oey0apX9ht7lDhlJV9X7gVbQ5or/JaFExjzP2+KfSPWtpAt91Tw7fck9Ui57VpPftRIveMarPo9jNntMtXf8keW+aoU3POuAXu+57OdtQbFPN17i42r8uX+vTolDtpnndyRlfMMp77hLjwN+zSct9oxvO+sPJe3zD5pw1bu+7EFVTLNDRWXqLbJVvV6rB/XJudAata7mMJ3SYRNmrV+x2at+4u894WN571oy7+tNWi4nnla4w0896yE3qECZhJRyZVqckXS/KqVSql21wyewwCbrlClXY4Ma5aqUOeucRU7rdVCDjFZp+61FqWo3Kscd9tqh0mb1+a5snl3beOi/9CoktLqkw3xns71TL/RgtuPVlFJJZeZgkz3eUG5zkffMDZaRlh50i72UlFYX9SiRydZsvtv62gQlkkr6dTCbVKpEIvt1abbdPK+aj9N6vOXzqLDSYil1kj6sXpm5UlqkrLTAc1rcU/T+WZNKlEgqU44TDivzFGhy2TF3Sap3vyVKVVjiVnNQp8sZDcqt8aQeDw3YDpn6EubbaLt56iyXRFKVFbao1emYo0PuIqnQqdEyvY7oQrW0kzaDdrXqXegbd49Wy31Fk+/ba/3Uj8tax3LonrTSh/U65btW+pAN173Sq0vKUiVISspkz7QqUWkOEkrMzS7qhKva0CWhXQN63GOdua59ta79BtX7uF12ecutHp/Cp6Ck1Eho191vQ/qYHU6Zr1qjdHZYyZC9sNd7zC47ve02n5pSG+Mp1Ra6oqPfoYkWr9mjwgqNfZvbqTFsQPVoV6VVt2t7/a6ddpJUphQpCVVSrq0naQlz/JxtttvrNo+pnDK3PO3Uo0oDqFJnDRLKzMte81KaXSYpaR2uqvVLXvCWA263eZpFZrUPeU7Gl7M7Qyp8zNsWuNEp+1QNucd9o9c8r1OH13XgZiftstgauzXaZPF1cXnFXifdr1uD6knoyz3vcbnKDmc1DnNqS0+2BVVqmY85YY93lfWLyxSatfdVtXyUttK16c11o1XZIcsHbPSVWq/Guw543qai3JcnN2VuUuKQlf2+AjsctMwtypxwcZTy79fzBZssnUL1TFmgznGN/X7t37QbGy1QMa55TZmjx4bsmlaaw1HiDeZ6z26vWu6+Yi+UPqVKlbs3+6xixJPpMnrNsd4cJ71hp3KfLPbsj0mZZW7SbWX2GH+Fj+px3gXtqtwrodqN2cNX5dapk7LeVYftUuY2C8yz3GZl3nbUVQ+501zzrcue87JGk9Nel7bUvZOwFZH3uFxvq8Pe8CG1Op3RZZEyKRd16/WmY+rQ7bIllit13nnXfk2v6NKrRJW0nR5WqdFZGbeM+p71OlS7TaleDYNOH2iSssoS87zhsiVTKEb6K7PaMttUZzdOzjpvo+MS7rbJJc8Pc6OoTg3WZuu52hIVdrmcPTVnakiqtN5e282zRMJlh23ynlabfUyHc0OWSslokdHbbw9diW7deiRUWG2vOuuU69I5yrkAGb1arLJGxt875kNFbV0mJF1xWbVSdRbqstwCSR16lPZtRQyty3lr3KTdi44XsQ7jU+5xaUuyz0qs9EnHXTLHWjfJqPFw9tUqj6hXYqH7LHJGpfXOqDfHenXe0exm61VjsY+qlcRK5Y66JOmO7FZmfuU9Lm/ysBe9oMNarfardJ9a9Q7Zo8srjpiPdtuslHJKygIkrXTCO6iz0u1eMt98x72r1vp+008o6VvRk8okcZ+XHVCmQo9THlaNZN+X7IQWZVIuq1E5xU6wuV5KlYf9wFY9Vmuz30U3qHXSUSUuahi09w/KddpujlXe06ZcUsMUrGfSRx23Q68NEo7a5Qa1yp21T6cD2ftGJvsFY5W5DntLpWVSSrIb1otxxFz1atzvkJ1aVerQbZk1SA1T84w2O8wzT6MFRbg3U38lKvV6XZN1VtnodS9ZI6lZuZX9Tg66fpmUKpV0xfM2KHXJvGl4WUdp32lh71ved/XOtWbTpuzjyr4bzdW4052QPfpQaoUV102h7rrlsGhSP9tJOET4WQs9m911vcwnLcED/s7/lvKAey2S0u2op12VdIf7UOph3/ekd33MBp/3N76tR9ItPmG1jBK12c3zMiuz+6RS6qxTiY/r8oo3ZJSqsl6lcgv7Vro2L3pPRpUHrZnC+y4p8YS5XvQjlKjzmPm2aPVTr5rrIe+qwFwLrvvYVlhpt7f9ugavOi6jxgNWT7Fj40kbfM0L9ngdpR5QaYvLXrLNPI86rdy1E5k/2JGyykbP+TMP+ZQ6q9ShxJ12e80+j/iMu5z1iq0SElb6LOZalr1SpkS9cgmUqVEmo80rTsuocq+PFmk5VKpTgTlWedirXvFVD9qs2VPZVvQ96tQoV5/9jD9YJikrzDFHpze9rNc8W6bVaUQzwQcNlsR1zxMf/JcZ4Zr2Rn/iwhB3gkxft9l4bYIZXc5YrlSmb0jGcTVqJCRkkNaqJLtqpDVqU6VKsu/VhKRrR1kT2TIZGUkkpGU0abHK+72GZPoepWVcdtXybLn+vm6ZX3RzwRf8Nn+nd4g7QQ617Fq1WSwhkz1skbnudqyZ7KZbUkbGJV2WDVnP76jwRPZ44uRq8bT/OsSdIDN9x7+Hq1mm71N+f/xuzdlrwDISktetJ3OzNc64YI4qsmvH+8smI51dNz5YT9Iu6jHf/EEt0Gt3gvzFvMbodl/z+wPuBJnO1uPa/DWYryxbj16nLVLe98mlr6tHoq9u176mvRq1qzF/0Od87U6Q35wCF4k+7SkrpuCdIOv97ghjJCqzq8v7K+v7q2x2xZ2UE9AGbw4llFt53Wb0tY99pWR23IRrG6Pvp3bKAtV9GyLXXn2/3AePEv3esSbb6vxg+h+8Vic9Tc5RG2rZzVd53dwnB7z6wfKgztQ9F29whA+sWaLfvCcklKmTHPCbnuoLx2vD6wcsg8HL5f2hKQvpW+eK4YN3TkiqzUbitZ+35f2+HyOt7ym1aobd7RAmT8HO100Mcehh4JDrP/6xdwM6Uonidio6Ubl/wadbb8+j1Swx5OfWv8xY6jyVls/AH4fcD80lpvn6PH3FD1QIIeQk4jKEEHIScRlCCDmZSjtzQggzRq/2Ue/FkynoxQJtfRfbjlfEZQgh7zIuOz5KXKZ1F/Q86HPaJtjNTsRlCCHv2lxyUuMIY/S4ojWHG9PkT6syt05oChGXIYS8m+NmH/fxEca46DXb/EEBN8fftivbtcd4RVyGEPKuRJW17hlhjDPOOOTuAh5t7nVygoE3odIZzd5ydVrfz26PeZNwT4/RdbngcE59R+fHXhsmvKM7V2kX/J+C1Sw/DivN8/LJaPf9YfpwnCxdzmkfpUejMH4TjMsubS6O+VbpLU5KWjclmrZX9AzTMdrkSruq1fkxlzuhRf04OoVt0VWgeiZkdI+jZl2OayxaP5TN5uc9ZtIu6xhzXJ50wt3jvM9Mt6ai/PjPFhNKrKRFPuvX+jrmzdV+f6PMb02JVunvmVOU2J7jZlv81pjLfcc7PuITYy73x9oL1EtRRol1/nbM5Rp8227fKsg8DpT2Pa/muffthFp/bO2Yl/rf+kt/ZsW49uk1ecmfxsnUkyaWbAgh5CTiMoQQchJxGUIIOYm4DCGEnERchjBr9HrTlWLPxDQWcRnCrHDFW77nz8dxild431Q49TGEMKlanPeOp33fRV92Y7FnZ9qKuAxhBsvo1O41f+Vpl4s9M9NexGUIM9pTvmG7xrjaJw8iLkOYoc572l855LyOuI48LyIuQ5iBDnne895yVEdR+kSYmSIuJ02vqXvP76jZTK7zW571up0OaR/i1W0FOZVop9NuK/aCyLuIy0lz2HuWuFlFQe9HUggNjrhig0XTJkAmIqPLIUetmxZf/4wuP7DNoWE7B/yuBQWYj4u63FvshZF3EZeTZqe/tNzjbrXC3BkVLGf9g9d9zmY3qCtQP0fFkdbhtMOetsuvTZO47NZsnmo9eoYco6sgvax26ZqBB5ciLidNr2Oe8tc+60s2WqhiBl0T0OR5L7nTV3zUDSpnZGSmXdVgv+/6niZ1BetceWKSKv2RM/7a805pHSKy/tQDBZiPp71oRbEXRt5FXE6qjFZ/6f95zNd8THWxZyeveu20y21+0RcneMOoqanDVt/0pNZiz8g43G+L/b7jW04Xe1ZmlIjLAuj0U3us92lftGRG7cnMOOxPfd9Dfs6DM2aHQ1qj7/uRfeO4U8DUkJBwk9/2C/7Rt72ns9gzNENEXBZEm3YNDnvSoz5nVZ777S6mLpe1OGObO33WFrXFnqEJ1+eUJz3jkDOuTOuzFcuVq1brw7b6R3uia408mPVxmdbk2KS0+M71+03PaHPEccdsd7+HC95qyWhxMk9hdlxzv+fdzrvosIPu9aBbClyz/Llqr1e8aq9Dg9pjvS44NKapnZwCYVtqhRVW2mS7rbYP+NzCWM36uGy0z+lJ2av4roZBw3ocdNAeu9TrLGhL7LztjvppXqZ12duDhqVd9oJ9drpX77Q8MbrVU9q87sCQR3Q7/MTZMU3voiZHrZgCh8FWWeVOd3vFDrtnzC6TYpj1cXnFYacmZZVuGbYFeVyXG6wpaD2bHHU0TzsBOjUN80qjfbrUTsu47HTIOSeHOf2ly4ExxuVV7c5PmePpSz3hEa/4kbpiz8o0NuvjcqEHbBjHjWhHt80zzg0aWmqBNT5leYGPWa6wxSqr8zKt0162ddDQhCr1HvCYrml3l3FY6EGtnnRA4xCHRip81ENjmt4JP3D7OG+AOznm+aRPFnsmprVZH5eV7vFzbp6EKVfZMSAuE8qt9Bu+aKVtBY7LeW73CZvzMq19mgbEZULKXF/wNXfp9eOC1ix/bvWIr/iRr3tH54A9jxUe8U/HNLXtnjVvBp1rGyIuC2iu2/2qJ1RPqRZHPiQt87N+yQ2qlU7zI7CLfdln/NS37IgDI2GAiMuCqPaAJ9xvufoZdd4lKRt8yqPWWapsBrSlUuaZ69PutN2TtrpQ7BkKU0jE5SRLWOARH3G3dZOyh7SYStzjIzbbOKPOJCWpTp2lNnjUy15wdloeugr5F3E5iUqtcK/73O+OaX/6dn8J8210r/vdZ4XyYs/OpFhooVvc6W7b7JgyR7hDMUVcTpp6D6v1mM0zbiFXuNUv+JhH1c64uvVX43732ucZhywt9sxMK1ed88qIfRI12uu4vyngzqkjDk/w3JCZvbYX1SY3W1vsmZgU9X7GL6sp9mwUSKl73OOIymLPyLTS7pgTXh5hjG7NWv23As5TmwqLJjSFiMtJM3NbIzWzJio/EDebHZtaW/ymL44wxhlPe87/LeDhwW2enWDgTf9DmSGEUBARlyGEkJOIyxBCyEnEZQgh5CTiMoQQchJxGUIIOZngiUS9Opwf80QuaFXq7JQ4k61VSVF6vU7r1OzMmMs1anV5HOVaZApWz4yuccxhkxYd4yiXD2kNOvN+qWOPC+aMuS/VRledlxzX6dvNGmbg7WqnjgnFZa9zvut/jPmDzeiR8N+LXfdsHb6sowjv2+wNL/sv45jftD8fx0ZBj8fcX5Ca9Wqz003jKNkj7UcFmceh5vp2n8nrFLsd8clxhF6vXi+N+1qXhGXD3F88TNyE4jJlka/4/JhPyD7qaaW+Ym6xa48/s7goHapVudtmXxlzuScd9qFxBN+3lagqSM1S5trkm2Mu1+yH9vtPBZnHgdKedTDP60GJ1f7QCqVjLPdjP/LvLB5XYLbY5W/j9hKTZoIb46Xq3WLVGEul7FJmvXnFrj0WKS/KDtyUeWptHHO5fVqsHke5JdoL9jVKmjuOOWyw3dlxlMuHtINO5Xk9SCi3ztoxb4y/o8otVowrLptcUjrDugicSuJQTwgh5CTiMoQQchJxGUIIOYm4DCGEnERchhBCTiIuQwghJxGXIYSQk4jLEELIScRlCCHkJOIyhBByEnEZQgg5ibgMIYScRFyGEEJOIi5DCCEnEZchhJCTiMsQQshJxGUIIeQk4jKEEHIScRlCCDmJuAwhhJxEXIYQQk4meCfIEEIYyklH7R/h9VaHHPUHBbxv5WnN7prQFCIuQwh5t9YWp0eMwko3WVjQzdtF1kVchhCmmrV+Vsso4/ToML+gczVX3YTKR1yGEPKuxDLLij0TeReHekIIIScRlyGEkJOIyxBCyEnEZQgh5CTiMoQQchJxGUIIOYm4DCGEnERchhBCTgbHZabYsxRCCFPAoCwsue6lxGgjhxDCDJaRGSL3+obExngIIeRk+GvGM6P3rJRU5nW9FozxTS/YKyWprNi1x+vuK8pvRlKrvXrGXG6P8y57c8zlXnRzgeqZxGl/POZyHXaOq1w+ZOxTnucOFBK6fUut1BjL7fOeb6ge13t2OGFOtIEmatjt6gmtIeUeUDaO1WyZasyfEh/rR2wac9znwxIPqlcx5nJ36FY+jnJb3GJpQWpW7mZfGsccltuscxzl8mOjFVbmdYpL/IpyJWPuz3GjNerGHLLXlKu0RdUkLaOQyP67/nGi729CItNe7FkMIYRCSMzN7r3M0Pf3g9ZmZio08EIIYRoYOi7jmHgIYTYbMgNLxl4khBBmpMzImZccNPrQj0MIYTYYIQOTw44eYRlCmI2GTcDkoJH6P47QDCHMFkPl3nWPkyMWjbAMIcwmI6Ze0sAWZKbfkAjMEMJs0T/5BiVjcpiRhxo9hBBmtoG51y8DkyMUiLAMIcw2I+Rfsm+E4YuGEMJsMEoSXn+9+PWPEgP+DXxkwPghhDDVZYZ4lhn0qP+Q68Z9v+OTgXE5fFiGEML0lBny2dCBOYQP+okaqn05VHsyQjOEMD1lhnw++O/AsbOPhorLkQIzNsRDCNPZ8C3M4YMzKzHK4+HDMqIyhDA9DX8F44jX9QzfWkwM8//BpUIIYboZ6aLvYc68HBh8Q4diYtjxQwhh+sqM+GjAJvnAW4KM3tocLCI0hDD15XZ++QjnmidGHTLa8xBCmJ4yY3s+dPiNHqIhhDBzZHIYMmwM5hqjIYQwnWVyHzrxPZIRoSGE6SHXPjCGGW/ksIsoDCHMLmM61DO+cUIIYXobte2ZexRGaIYQZqYcN9LHH4IRnyGE6Wmc/fj+f809LGu7yKfxAAAAJXRFWHRkYXRlOmNyZWF0ZQAyMDIzLTEwLTI2VDExOjQ2OjQ4KzAwOjAwndVyfAAAACV0RVh0ZGF0ZTptb2RpZnkAMjAyMy0xMC0yNlQxMTo0Njo0OCswMDowMOyIysAAAAAodEVYdGRhdGU6dGltZXN0YW1wADIwMjMtMTAtMjZUMTE6NDY6NDgrMDA6MDC7nesfAAAAAElFTkSuQmCC;" vertex="1" parent="1">
          <mxGeometry x="186" y="-90" width="478.83" height="130" as="geometry" />
        </mxCell>
        <mxCell id="TXvpiFFwsclp0lEu6n0N-12" value="" style="edgeStyle=entityRelationEdgeStyle;fontSize=12;html=1;endArrow=ERzeroToMany;startArrow=ERmandOne;rounded=0;exitX=1;exitY=0.5;exitDx=0;exitDy=0;" edge="1" parent="1" source="C-vyLk0tnHw3VtMMgP7b-24" target="TXvpiFFwsclp0lEu6n0N-5">
          <mxGeometry width="100" height="100" relative="1" as="geometry">
            <mxPoint x="440" y="220" as="sourcePoint" />
            <mxPoint x="450" y="180" as="targetPoint" />
          </mxGeometry>
        </mxCell>
        <mxCell id="TXvpiFFwsclp0lEu6n0N-38" value="" style="edgeStyle=entityRelationEdgeStyle;fontSize=12;html=1;endArrow=ERoneToMany;startArrow=ERmandOne;rounded=0;jumpStyle=line;endSize=12;startSize=12;" edge="1" parent="1" source="TXvpiFFwsclp0lEu6n0N-2" target="C-vyLk0tnHw3VtMMgP7b-17">
          <mxGeometry width="100" height="100" relative="1" as="geometry">
            <mxPoint x="50" y="359.9999999999998" as="sourcePoint" />
            <mxPoint x="50" y="600" as="targetPoint" />
            <Array as="points">
              <mxPoint x="-460" y="565" />
              <mxPoint x="-420" y="665" />
              <mxPoint x="-430" y="675" />
              <mxPoint x="-460" y="565" />
              <mxPoint x="280" y="470" />
              <mxPoint x="-340" y="483" />
              <mxPoint x="-590" y="595" />
              <mxPoint x="-510" y="555" />
              <mxPoint x="-600" y="615" />
            </Array>
          </mxGeometry>
        </mxCell>
        <mxCell id="TXvpiFFwsclp0lEu6n0N-50" value="" style="edgeStyle=entityRelationEdgeStyle;fontSize=12;html=1;endArrow=ERoneToMany;startArrow=ERoneToMany;rounded=0;endSize=12;startSize=12;" edge="1" parent="1" source="C-vyLk0tnHw3VtMMgP7b-3" target="C-vyLk0tnHw3VtMMgP7b-20">
          <mxGeometry width="100" height="100" relative="1" as="geometry">
            <mxPoint x="130" y="630" as="sourcePoint" />
            <mxPoint x="130" y="460" as="targetPoint" />
            <Array as="points">
              <mxPoint x="-530" y="510" />
            </Array>
          </mxGeometry>
        </mxCell>
      </root>
    </mxGraphModel>
  </diagram>
</mxfile>
